<svg xmlns="http://www.w3.org/2000/svg" width="146.7mm" height="155.9mm" viewBox="0 0 415.8 442"><defs><style>.a,.b,.c,.d,.e,.f,.g{isolation:isolate;}.b{font-size:303.99px;}.b,.c,.d,.e,.f,.g,.h{fill:#fcc44b;}.b,.c,.d,.e,.f,.g{font-family:Gabriola;}.c{font-size:262.91px;}.d{font-size:257.98px;}.e,.f,.g{font-size:67.37px;}.f{letter-spacing:-0.02em;}.g{letter-spacing:0em;}.i{fill:#fff;}</style></defs><title>logo</title><g class="a"><text class="b" transform="translate(0 236.8)">F</text><text class="c" transform="translate(118.4 236.8)">oo</text><text class="d" transform="translate(305.2 236.8)">d</text></g><g class="a"><text class="e" transform="translate(169.2 110.5)">Healt</text><text class="f" transform="translate(280.8 110.5)">h</text><text class="g" transform="translate(307.4 110.5)">y</text></g><ellipse class="h" cx="162.7" cy="190.6" rx="32.2" ry="42.9"/><ellipse class="h" cx="261.1" cy="190.6" rx="32.2" ry="42.9"/><path class="i" d="M247.2,178a56.1,56.1,0,0,0,2.8-11.6,11.6,11.6,0,0,0-1.3-7.3c-.6-1.2-1.4-2.6-2.5-4.4a17.4,17.4,0,0,1-2.4-9.4,68.2,68.2,0,0,1,1.9-12l8.5-32.3c0-.2.2-.3.4-.3l1.9.4c.2,0,.4.2.3.4l-7.7,37.8c-.2,1-.1,2,.7,2.2h.6c1.1-.1,1.4-.9,1.5-1.7l8.2-37.9a.3.3,0,0,1,.4-.2l1.7.3c.2,0,.4.2.3.4L255.8,141a1.7,1.7,0,0,0,.7,2.1,1.6,1.6,0,0,0,1.2.1,1.7,1.7,0,0,0,1.3-1.6c1-5.7,6.2-35,6.8-38.5,0-.2.2-.4.4-.3l1.8.3c.2,0,.3.2.3.4L263,142.8a1.3,1.3,0,0,0,.8,1.4h.8c1-.1,1.2-1,1.3-1.8l5.7-38.4c0-.2.2-.4.4-.3l2,.3c.2,0,.3.2.3.4-.3,3.2-2.7,29.3-4.3,40.5s-6.4,13.1-10.4,15.8a9.5,9.5,0,0,0-3.9,6.5c-.9,5.8-1,8.9-.6,10" transform="translate(0 63.3)"/><path class="i" d="M160.7,155.5c1.6-1.6.5-4.1.3-4.5l-2.2-.4a21.8,21.8,0,0,1-4.4-1.1,3,3,0,0,1-2.2-3.2l.2-1h0c10-39.9,18.2-45.8,19.1-46.4h.1c3.9,5.2-3.8,49-3.8,49l-1.2,6.8a19.7,19.7,0,0,0-.4,3.4c-.4,6.3-1.1,15.4-1.8,18.8,0,.2,0,.3-.2.4a35.6,35.6,0,0,1-8-.2c-.3,0-3.6,0-3.5-.5C153.8,172.3,156.6,159.8,160.7,155.5Z" transform="translate(0 63.3)"/></svg>