<?xml version="1.0" encoding="iso-8859-1"?>
<!-- Generator: Adobe Illustrator 19.0.0, SVG Export Plug-In . SVG Version: 6.00 Build 0)  -->
<svg version="1.1" id="Capa_1" xmlns="http://www.w3.org/2000/svg" xmlns:xlink="http://www.w3.org/1999/xlink" x="0px" y="0px"
	 viewBox="0 0 512 512" style="enable-background:new 0 0 512 512;" xml:space="preserve">
<g>
	<circle style="fill:#455A64;" cx="143.976" cy="64" r="64"/>
	<path style="fill:#455A64;" d="M193.48,160h-17.504c-4.246-0.008-8.322,1.673-11.328,4.672l-20.672,20.672l-20.672-20.672
		c-3.006-2.999-7.082-4.68-11.328-4.672H94.472c-16.434,0-30.197,12.448-31.84,28.8L47.976,334.4
		c-0.884,8.792,5.527,16.636,14.32,17.52c0.558,0.056,1.119,0.083,1.68,0.08H81.48l13.152,131.2
		c1.643,16.352,15.406,28.8,31.84,28.8h35.008c16.495,0.083,30.351-12.387,32-28.8L206.472,352h17.504
		c8.836,0.044,16.036-7.083,16.08-15.92c0.003-0.561-0.024-1.122-0.08-1.68L225.32,188.8C223.677,172.448,209.914,160,193.48,160z"
		/>
	<circle style="fill:#455A64;" cx="367.976" cy="64" r="64"/>
	<path style="fill:#455A64;" d="M438.152,320h9.824c8.836,0.068,16.055-7.04,16.123-15.876c0.005-0.705-0.036-1.409-0.123-2.108
		l-14.368-113.44c-1.854-16.274-15.621-28.567-32-28.576h-99.232c-16.352-0.105-30.152,12.136-32,28.384l-14.4,113.632
		c-1.096,8.768,5.124,16.765,13.892,17.861c0.699,0.087,1.403,0.129,2.108,0.123h9.792l-24.96,74.944
		c-2.792,8.384,1.74,17.444,10.124,20.236c1.626,0.542,3.329,0.819,5.044,0.82h18.432l11.552,69.248
		c2.567,15.442,15.93,26.76,31.584,26.752h36.864c15.642-0.007,28.987-11.322,31.552-26.752L429.544,416h18.432
		c8.837,0.011,16.009-7.144,16.02-15.98c0.002-1.725-0.275-3.439-0.82-5.076L438.152,320z"/>
</g>
<path d="M143.976,128c-35.346,0-64-28.654-64-64s28.654-64,64-64s64,28.654,64,64S179.322,128,143.976,128z M143.976,32
	c-17.673,0-32,14.327-32,32s14.327,32,32,32s32-14.327,32-32S161.649,32,143.976,32z"/>
<path d="M161.512,512h-35.2c-16.422-0.016-30.166-12.46-31.808-28.8L81.512,352H63.976c-4.526-0.002-8.84-1.92-11.872-5.28
	c-3.082-3.323-4.586-7.811-4.128-12.32l14.656-145.6c1.642-16.34,15.386-28.784,31.808-28.8h17.536
	c4.246-0.008,8.322,1.673,11.328,4.672l20.672,20.704l20.672-20.704c3.006-2.999,7.082-4.68,11.328-4.672h17.536
	c16.422,0.016,30.166,12.46,31.808,28.8l14.656,145.6c0.483,4.495-0.985,8.981-4.032,12.32c-3.055,3.385-7.409,5.306-11.968,5.28
	H206.44l-13.12,131.2C191.678,499.54,177.934,511.984,161.512,512z M81.672,320h14.304c8.248-0.041,15.175,6.194,16,14.4L126.44,480
	h35.2l14.336-145.6c0.825-8.206,7.752-14.441,16-14.4h14.304l-12.8-128H182.6l-27.296,27.328c-6.24,6.256-16.371,6.269-22.627,0.029
	c-0.01-0.01-0.019-0.019-0.029-0.029L105.352,192H94.44L81.672,320z"/>
<path d="M367.976,128c-35.346,0-64-28.654-64-64s28.654-64,64-64s64,28.654,64,64S403.322,128,367.976,128z M367.976,32
	c-17.673,0-32,14.327-32,32s14.327,32,32,32s32-14.327,32-32S385.649,32,367.976,32z"/>
<path d="M386.408,512h-36.864c-15.642-0.007-28.987-11.322-31.552-26.752L306.408,416h-18.432
	c-8.837,0.011-16.009-7.144-16.02-15.98c-0.002-1.725,0.275-3.439,0.82-5.076L297.8,320h-9.824
	c-8.836,0.07-16.057-7.036-16.127-15.872c-0.006-0.717,0.037-1.433,0.127-2.144l14.4-113.6c1.848-16.248,15.648-28.489,32-28.384
	h99.2c16.379,0.009,30.146,12.302,32,28.576l14.4,113.408c1.114,8.766-5.09,16.775-13.856,17.889
	c-0.711,0.09-1.427,0.133-2.144,0.127h-9.824l25.024,74.944c2.792,8.384-1.74,17.444-10.124,20.236
	c-1.637,0.545-3.351,0.822-5.076,0.82h-18.432l-11.584,69.248C415.395,500.678,402.05,511.993,386.408,512z M310.152,384h9.824
	c7.821,0.004,14.493,5.661,15.776,13.376L349.544,480h36.864l13.792-82.624c1.283-7.715,7.955-13.372,15.776-13.376h9.824
	l-25.024-74.944c-2.792-8.384,1.74-17.444,10.124-20.236c1.637-0.545,3.351-0.822,5.076-0.82h13.856l-12.128-95.584L318.376,192
	l-12.256,96h13.856c8.837-0.011,16.009,7.144,16.02,15.98c0.002,1.725-0.275,3.439-0.82,5.076L310.152,384z"/>
<g>
</g>
<g>
</g>
<g>
</g>
<g>
</g>
<g>
</g>
<g>
</g>
<g>
</g>
<g>
</g>
<g>
</g>
<g>
</g>
<g>
</g>
<g>
</g>
<g>
</g>
<g>
</g>
<g>
</g>
</svg>
