<?xml version="1.0" encoding="utf-8"?>
<!-- Generator: Adobe Illustrator 24.0.3, SVG Export Plug-In . SVG Version: 6.00 Build 0)  -->
<svg version="1.1" id="Capa_1" xmlns="http://www.w3.org/2000/svg" xmlns:xlink="http://www.w3.org/1999/xlink" x="0px" y="0px"
	 viewBox="0 0 512 512" style="enable-background:new 0 0 512 512;" xml:space="preserve">
<g>
	<g>
		<path d="M449.4,208.7h-40.7v-55C408.7,69.5,340.2,1,256,1S103.3,69.5,103.3,153.7v55H62.6c-16.9,0-30.5,13.7-30.5,30.5v242.3
			c0,16.9,13.7,30.5,30.5,30.5h386.8c16.9,0,30.5-13.7,30.5-30.5V239.2C479.9,222.3,466.3,208.7,449.4,208.7z M286.5,369.8v12
			c0,16.9-13.7,30.5-30.5,30.5s-30.5-13.7-30.5-30.5v-12c-11.9-4.2-20.4-15.5-20.4-28.8c0-16.9,13.7-30.5,30.5-30.5h40.7
			c16.9,0,30.5,13.7,30.5,30.5C306.9,354.3,298.4,365.6,286.5,369.8z M347.6,208.7H164.4v-55c0-50.5,41.1-91.6,91.6-91.6
			s91.6,41.1,91.6,91.6V208.7z"/>
	</g>
</g>
</svg>
